# xmcd
#
# Track frame offsets:
#	150
#	12322
#	23600
#	35937
#	48350
#	60835
#	78837
#	90087
#	102925
#	115400
#
# Disc length: 1693 seconds
#
# Revision: 1
# Processed by: cddbd v1.4PL0 Copyright (c) Steve Scherf et al.
# Submitted via: audiograbber 1.81.01
#
DISCID=6a069b0a
DTITLE=Various Artist - Jammin' Oldies Classic Country
DYEAR=1900
DGENRE=
TTITLE0=Merle Haggard - Okie from Muskogee
TTITLE1=Conway Twitty - Hello Darlin'
TTITLE2=Moe Brandy - Just Good Ol' Boys
TTITLE3=Johnny Paycheck - Take This Job and Shove It
TTITLE4=Freddy Fender - Wasted Days and Wasted Nights
TTITLE5=Willy Nelson - Crazy
TTITLE6=Roger Miller - King of the Road
TTITLE7=Bill Anderson - Still
TTITLE8=Charlie Rich - Behind Closed Doors
TTITLE9=Patsy Cline - Walking after Midnight
EXTD=
EXTT0=
EXTT1=
EXTT2=
EXTT3=
EXTT4=
EXTT5=
EXTT6=
EXTT7=
EXTT8=
EXTT9=
PLAYORDER=
